<?xml version="1.0" encoding="UTF-8"?>
<svg id="Layer_1" xmlns="http://www.w3.org/2000/svg" version="1.1" viewBox="0 0 128 128">
  <!-- Generator: Adobe Illustrator 29.8.3, SVG Export Plug-In . SVG Version: 2.1.1 Build 3)  -->
  <defs>
    <style>
      .st0 {
        fill: #fff;
      }
    </style>
  </defs>
  <path id="baribahl-watermark-mono" class="st0" d="M86.54,39.59c4.45,5.91,4.55,15.56.21,21.55-3.51,4.85-9.18,4.91-12.76.12-2.35-3.14-3.46-7.06-3.29-11.64.14-3.74,1.11-7.22,3.46-10.2,3.53-4.48,8.94-4.39,12.37.16ZM77.11,34.77c.07.69.4.84,1.02.65,1.77-.54,3.55-.55,5.33-.05.9.25,1.15-.03.87-.94-2.14-6.73-6.38-11.59-12.82-14.5-.28-.13-.58-.39-.96-.15-.04.56.4.89.66,1.28,2.81,4.21,5.34,8.53,5.9,13.71ZM51.65,32.99c1.47-1.24,3.29-1.61,5.2-1.62,1.32.44,1.33-.28,1.05-1.23-.56-1.9-1.41-3.68-2.37-5.41-1.61-2.9-3.4-5.69-5.36-8.38-.21-.29-.38-.82-.79-.71-.5.14-.31.71-.34,1.11-.06.71-.09,1.42-.12,2.14-.25,4.59-.23,9.15,1.25,13.58.31.93.53,1.32,1.49.52ZM56.22,59.69c3.54,2.11,7.54,1.13,9.78-2.32,1.42-2.18,1.85-4.64,2.12-7.32-.05-.73-.09-1.61-.19-2.48-.5-4.29-2.02-8.12-5.06-11.26-4.82-4.96-11.18-3.51-13.46,3.01-1.26,3.6-1.05,7.18-.01,10.76,1.15,3.98,3.15,7.41,6.82,9.61ZM99.72,80.26c3.22.02,5.33-1.93,6.67-4.63,2.97-5.99,2.61-11.93-1.08-17.46-3.51-5.25-9.61-4.85-12.72.67-1.28,2.27-1.94,4.72-2.01,7.33-.11,3.36.61,6.62,2.35,9.52,1.53,2.55,3.6,4.54,6.79,4.56ZM96.88,52.74c-.03.97.63.84,1.21.73,1.71-.32,3.34-.07,4.93.57.33.13.68.48,1.03.15.32-.3.11-.72.04-1.07-.56-2.87-1.57-5.57-3.09-8.07-2.14-3.52-5.07-6.19-8.78-8.22-.17.69.19.99.37,1.35,2.29,4.6,4.43,9.25,4.29,14.57ZM19.31,67.86c1.17-1.14,2.5-2.03,4.07-2.4,1.14-.26,1.15-.69.74-1.65-2.02-4.72-2.11-9.69-1.78-14.71.02-.36.28-.87-.1-1.03-.5-.21-.66.4-.87.71-2.51,3.69-4.05,7.71-4.03,12.42-.21,1.97.02,4.1.52,6.19.32,1.32.5,1.38,1.44.47ZM33.4,91.33c3.22-.86,5.13-3.75,5.25-7.74.2-6.24-4.21-13.04-9.95-15.6-5.14-2.29-10.9,0-10.93,7.21-.03,6.46,3.08,11.5,8.62,14.89,2.14,1.31,4.52,1.89,7.01,1.23ZM30.82,51.22c-1.2,4.33-.48,8.5,1.31,12.5,1.54,3.44,3.75,6.35,7.25,8.07,3.38,1.66,6.92.53,8.74-2.74,1.01-1.8,1.43-3.75,1.57-6.17-.03-.49-.04-1.38-.17-2.24-.81-5.42-2.89-10.18-7.49-13.46-4.61-3.28-9.71-1.39-11.22,4.05ZM31.8,46.58c1.28-1.39,2.82-2.38,4.67-2.82.82-.2.72-.6.44-1.19-1.34-2.89-1.94-5.94-2.11-9.13-.12-2.3.02-4.6.01-6.94-.56-.04-.7.27-.85.49-3.96,5.95-5.18,12.36-3.25,19.31.22.79.53.88,1.08.28ZM109.95,98.68c-1.5,4.35-3.81,8.07-8.34,9.84-2.59,1.01-5.31,1.18-8.05.93-2.88-.25-5.76-.58-8.63-.91-4.98-.56-9.57.84-13.99,2.9-3.69,1.72-7.23,3.75-11.04,5.22-2.54.98-5.11,1.87-7.87,2.13-8.06.78-17.63-4.59-21.06-11.89-1.87-3.99-1.16-7.71,2.15-11.04,2.2-2.22,4.85-3.88,7.34-5.74,2.81-2.09,5.13-4.5,5.81-8.08.33-1.73.55-3.48.79-5.22.41-2.97,1.65-5.48,4.18-7.17,6.32-4.23,10.22-5.79,17.49-5.7,4.8.31,9.36,1.63,13.14,5.02,2.03,1.83,3.28,4.24,4.8,6.44,2.22,3.21,4.7,6.17,8.37,7.8,2.43,1.08,5.1,1.35,7.64,2.09,4.18,1.22,6.88,3.88,7.87,8.16.41,1.78-.01,3.53-.59,5.19ZM79.03,86.56c-.04-2.39-.9-4.51-2.57-6.32-1.01-1.09-2.27-1.81-3.38-2.37-.4-.2-.81-.39-1.2-.57-.78-.36-1.51-.7-2.19-1.14-1.17-.76-2.33-1.66-2.94-3.07-.32-.72-1.07-1.21-1.88-1.21-.07,0-.14,0-.2.01-.61.06-1.15.34-1.49.79-.36.46-.5,1.06-.4,1.69.39,2.6.78,5.2,1.17,7.8l.46,3.08,1.48,9.86.03.18c-.56-.12-1.13-.18-1.71-.18-.17,0-.35,0-.53.02-2.36.15-4.29,1.08-5.72,2.76-1.12,1.32-1.55,2.86-1.24,4.45.3,1.54,1.22,2.76,2.72,3.63,1.16.67,2.53,1.03,3.97,1.03,2.02,0,3.98-.71,5.4-1.96,1.74-1.53,2.42-3.38,2.02-5.52-.13-.72-.24-1.46-.34-2.18-.05-.34-.09-.67-.15-1.01l-.29-1.94-1.16-7.7c2.1.77,3.62,2.14,4.62,4.14.29.57.23.75.05,1.01-.57.82-.38,1.97.45,2.67.37.32.85.49,1.34.49.45,0,.89-.14,1.26-.41.41-.3.62-.69.79-1l.02-.05c1.12-2.1,1.65-4.39,1.6-6.99Z"/>
</svg>